# Blender v2.78 (sub 0) OBJ File: ''
# www.blender.org
mtllib mesh.mtl
o Plane
v -1.533131 0.000000 1.533131
v 1.533131 0.000000 1.533131
v -1.533131 0.000000 -1.533131
v 1.533131 0.000000 -1.533131
v -1.533131 0.000000 0.000000
v 0.000000 0.000000 1.533131
v 1.533131 0.000000 0.000000
v 0.000000 0.000000 -1.533131
v 0.000000 0.000000 0.000000
v -1.533131 0.000000 0.766565
v 0.766565 0.000000 1.533131
v 1.533131 0.000000 -0.766565
v -0.766565 0.000000 -1.533131
v -1.533131 0.000000 -0.766565
v -0.766565 0.000000 1.533131
v 1.533131 0.000000 0.766565
v 0.766565 0.000000 -1.533131
v 0.000000 0.000000 -0.766565
v 0.000000 0.000000 0.766565
v -0.766565 0.000000 0.000000
v 0.766565 0.000000 0.000000
v 0.766565 0.000000 0.766565
v -0.766565 0.000000 0.766565
v -0.766565 0.000000 -0.766565
v 0.766565 0.000000 -0.766565
v -1.533131 0.000000 1.149848
v 1.149848 0.000000 1.533131
v 1.533131 0.000000 -1.149848
v -1.149848 0.000000 -1.533131
v -1.533131 0.000000 -0.383283
v -0.383283 0.000000 1.533131
v 1.533131 0.000000 0.383283
v 0.383283 0.000000 -1.533131
v 0.000000 0.000000 -1.149848
v 0.000000 0.000000 0.383283
v -1.149848 0.000000 0.000000
v 0.383283 0.000000 0.000000
v -1.533131 0.000000 0.383283
v 0.383283 0.000000 1.533131
v 1.533131 0.000000 -0.383283
v -0.383283 0.000000 -1.533131
v -1.533131 0.000000 -1.149848
v -1.149848 0.000000 1.533131
v 1.533131 0.000000 1.149848
v 1.149848 0.000000 -1.533131
v 0.000000 0.000000 -0.383283
v 0.000000 0.000000 1.149848
v -0.383283 0.000000 0.000000
v 1.149848 0.000000 0.000000
v 0.766565 0.000000 0.383283
v 0.766565 0.000000 1.149848
v 0.383283 0.000000 0.766565
v 1.149848 0.000000 0.766565
v -0.766565 0.000000 0.383283
v -0.766565 0.000000 1.149848
v -1.149848 0.000000 0.766565
v -0.383283 0.000000 0.766565
v -0.766565 0.000000 -1.149848
v -0.766565 0.000000 -0.383283
v -1.149848 0.000000 -0.766565
v -0.383283 0.000000 -0.766565
v 0.766565 0.000000 -1.149848
v 0.766565 0.000000 -0.383283
v 0.383283 0.000000 -0.766565
v 1.149848 0.000000 -0.766565
v 1.149848 0.000000 -1.149848
v -0.383283 0.000000 -1.149848
v -0.383283 0.000000 0.383283
v 1.149848 0.000000 0.383283
v 0.383283 0.000000 0.383283
v 0.383283 0.000000 1.149848
v 1.149848 0.000000 1.149848
v -1.149848 0.000000 0.383283
v -1.149848 0.000000 1.149848
v -0.383283 0.000000 1.149848
v -1.149848 0.000000 -1.149848
v -1.149848 0.000000 -0.383283
v -0.383283 0.000000 -0.383283
v 0.383283 0.000000 -1.149848
v 0.383283 0.000000 -0.383283
v 1.149848 0.000000 -0.383283
v -1.533131 0.000000 1.341490
v 1.341490 0.000000 1.533131
v 1.533131 0.000000 -1.341490
v -1.341490 0.000000 -1.533131
v -1.533131 0.000000 -0.191641
v -0.191641 0.000000 1.533131
v 1.533131 0.000000 0.191641
v 0.191641 0.000000 -1.533131
v 0.000000 0.000000 -1.341490
v 0.000000 0.000000 0.191641
v -1.341490 0.000000 0.000000
v 0.191641 0.000000 0.000000
v -1.533131 0.000000 0.574924
v 0.574924 0.000000 1.533131
v 1.533131 0.000000 -0.574924
v -0.574924 0.000000 -1.533131
v -1.533131 0.000000 -0.958207
v -0.958207 0.000000 1.533131
v 1.533131 0.000000 0.958207
v 0.958207 0.000000 -1.533131
v 0.000000 0.000000 -0.574924
v 0.000000 0.000000 0.958207
v -0.574924 0.000000 0.000000
v 0.958207 0.000000 0.000000
v 0.766565 0.000000 0.191641
v 0.766565 0.000000 0.958207
v 0.191641 0.000000 0.766565
v 0.958207 0.000000 0.766565
v -0.766565 0.000000 0.191641
v -0.766565 0.000000 0.958207
v -1.341490 0.000000 0.766565
v -0.574924 0.000000 0.766565
v -0.766565 0.000000 -1.341490
v -0.766565 0.000000 -0.574924
v -1.341490 0.000000 -0.766565
v -0.574924 0.000000 -0.766565
v 0.766565 0.000000 -1.341490
v 0.766565 0.000000 -0.574924
v 0.191641 0.000000 -0.766565
v 0.958207 0.000000 -0.766565
v 1.341490 0.000000 -0.958207
v -0.191641 0.000000 -0.958207
v -0.191641 0.000000 0.574924
v 1.341490 0.000000 0.574924
v 0.574924 0.000000 0.574924
v 0.574924 0.000000 1.341490
v 1.341490 0.000000 1.341490
v -0.958207 0.000000 0.574924
v -0.958207 0.000000 1.341490
v -0.191641 0.000000 1.341490
v -0.958207 0.000000 -0.958207
v -0.958207 0.000000 -0.191641
v -0.191641 0.000000 -0.191641
v 0.574924 0.000000 -0.958207
v 0.574924 0.000000 -0.191641
v 1.341490 0.000000 -0.191641
v -1.533131 0.000000 0.958207
v 0.958207 0.000000 1.533131
v 1.533131 0.000000 -0.958207
v -0.958207 0.000000 -1.533131
v -1.533131 0.000000 -0.574924
v -0.574924 0.000000 1.533131
v 1.533131 0.000000 0.574924
v 0.574924 0.000000 -1.533131
v 0.000000 0.000000 -0.958207
v 0.000000 0.000000 0.574924
v -0.958207 0.000000 0.000000
v 0.574924 0.000000 0.000000
v -1.533131 0.000000 0.191641
v 0.191641 0.000000 1.533131
v 1.533131 0.000000 -0.191641
v -0.191641 0.000000 -1.533131
v -1.533131 0.000000 -1.341490
v -1.341490 0.000000 1.533131
v 1.533131 0.000000 1.341490
v 1.341490 0.000000 -1.533131
v 0.000000 0.000000 -0.191641
v 0.000000 0.000000 1.341490
v -0.191641 0.000000 0.000000
v 1.341490 0.000000 0.000000
v 0.766565 0.000000 0.574924
v 0.766565 0.000000 1.341490
v 0.574924 0.000000 0.766565
v 1.341490 0.000000 0.766565
v -0.766565 0.000000 0.574924
v -0.766565 0.000000 1.341490
v -0.958207 0.000000 0.766565
v -0.191641 0.000000 0.766565
v -0.766565 0.000000 -0.958207
v -0.766565 0.000000 -0.191641
v -0.958207 0.000000 -0.766565
v -0.191641 0.000000 -0.766565
v 0.766565 0.000000 -0.958207
v 0.766565 0.000000 -0.191641
v 0.574924 0.000000 -0.766565
v 1.341490 0.000000 -0.766565
v 0.958207 0.000000 -1.341490
v -0.574924 0.000000 -1.341490
v -0.574924 0.000000 0.191641
v 0.958207 0.000000 0.191641
v 0.191641 0.000000 0.191641
v 0.191641 0.000000 0.958207
v 0.958207 0.000000 0.958207
v -1.341490 0.000000 0.191641
v -1.341490 0.000000 0.958207
v -0.574924 0.000000 0.958207
v -1.341490 0.000000 -1.341490
v -1.341490 0.000000 -0.574924
v -0.574924 0.000000 -0.574924
v 0.191641 0.000000 -1.341490
v 0.191641 0.000000 -0.574924
v 0.958207 0.000000 -0.574924
v 1.149848 0.000000 -0.574924
v 1.341490 0.000000 -0.383283
v 1.341490 0.000000 -0.574924
v 0.383283 0.000000 -0.574924
v 0.574924 0.000000 -0.383283
v 0.574924 0.000000 -0.574924
v 0.383283 0.000000 -1.341490
v 0.574924 0.000000 -1.149848
v 0.574924 0.000000 -1.341490
v -0.383283 0.000000 -0.574924
v -0.191641 0.000000 -0.383283
v -0.191641 0.000000 -0.574924
v -1.149848 0.000000 -0.574924
v -0.958207 0.000000 -0.383283
v -0.958207 0.000000 -0.574924
v -1.149848 0.000000 -1.341490
v -0.958207 0.000000 -1.149848
v -0.958207 0.000000 -1.341490
v -0.383283 0.000000 0.958207
v -0.191641 0.000000 1.149848
v -0.191641 0.000000 0.958207
v -1.149848 0.000000 0.958207
v -0.958207 0.000000 1.149848
v -0.958207 0.000000 0.958207
v -1.149848 0.000000 0.191641
v -0.958207 0.000000 0.383283
v -0.958207 0.000000 0.191641
v 1.149848 0.000000 0.958207
v 1.341490 0.000000 1.149848
v 1.341490 0.000000 0.958207
v 0.383283 0.000000 0.958207
v 0.574924 0.000000 1.149848
v 0.574924 0.000000 0.958207
v 0.383283 0.000000 0.191641
v 0.574924 0.000000 0.383283
v 0.574924 0.000000 0.191641
v 1.149848 0.000000 0.191641
v 1.341490 0.000000 0.383283
v 1.341490 0.000000 0.191641
v -0.383283 0.000000 0.191641
v -0.191641 0.000000 0.383283
v -0.191641 0.000000 0.191641
v -0.383283 0.000000 -1.341490
v -0.191641 0.000000 -1.149848
v -0.191641 0.000000 -1.341490
v 1.149848 0.000000 -1.341490
v 1.341490 0.000000 -1.149848
v 1.341490 0.000000 -1.341490
v 0.958207 0.000000 -0.191641
v 1.149848 0.000000 -0.191641
v 0.958207 0.000000 -0.383283
v 0.191641 0.000000 -0.191641
v 0.383283 0.000000 -0.191641
v 0.191641 0.000000 -0.383283
v 0.191641 0.000000 -0.958207
v 0.383283 0.000000 -0.958207
v 0.191641 0.000000 -1.149848
v -0.574924 0.000000 -0.191641
v -0.383283 0.000000 -0.191641
v -0.574924 0.000000 -0.383283
v -1.341490 0.000000 -0.191641
v -1.149848 0.000000 -0.191641
v -1.341490 0.000000 -0.383283
v -1.341490 0.000000 -0.958207
v -1.149848 0.000000 -0.958207
v -1.341490 0.000000 -1.149848
v -0.574924 0.000000 1.341490
v -0.383283 0.000000 1.341490
v -0.574924 0.000000 1.149848
v -1.341490 0.000000 1.341490
v -1.149848 0.000000 1.341490
v -1.341490 0.000000 1.149848
v -1.341490 0.000000 0.574924
v -1.149848 0.000000 0.574924
v -1.341490 0.000000 0.383283
v 0.958207 0.000000 1.341490
v 1.149848 0.000000 1.341490
v 0.958207 0.000000 1.149848
v 0.191641 0.000000 1.341490
v 0.383283 0.000000 1.341490
v 0.191641 0.000000 1.149848
v 0.191641 0.000000 0.574924
v 0.383283 0.000000 0.574924
v 0.191641 0.000000 0.383283
v 0.958207 0.000000 0.574924
v 1.149848 0.000000 0.574924
v 0.958207 0.000000 0.383283
v -0.574924 0.000000 0.574924
v -0.383283 0.000000 0.574924
v -0.574924 0.000000 0.383283
v -0.574924 0.000000 -0.958207
v -0.383283 0.000000 -0.958207
v -0.574924 0.000000 -1.149848
v 0.958207 0.000000 -0.958207
v 1.149848 0.000000 -0.958207
v 0.958207 0.000000 -1.149848
vn 0.0000 1.0000 0.0000
usemtl None
s off
f 12//1 122//1 177//1
f 18//1 123//1 173//1
f 19//1 124//1 169//1
f 16//1 125//1 165//1
f 22//1 126//1 164//1
f 11//1 127//1 95//1
f 2//1 128//1 83//1
f 23//1 129//1 168//1
f 15//1 130//1 99//1
f 6//1 131//1 87//1
f 24//1 132//1 172//1
f 20//1 133//1 148//1
f 9//1 134//1 160//1
f 25//1 135//1 176//1
f 21//1 136//1 149//1
f 7//1 137//1 161//1
f 12//1 140//1 122//1
f 18//1 146//1 123//1
f 19//1 147//1 124//1
f 16//1 144//1 125//1
f 22//1 162//1 126//1
f 11//1 163//1 127//1
f 2//1 156//1 128//1
f 23//1 166//1 129//1
f 15//1 167//1 130//1
f 6//1 159//1 131//1
f 24//1 170//1 132//1
f 20//1 171//1 133//1
f 9//1 158//1 134//1
f 25//1 174//1 135//1
f 21//1 175//1 136//1
f 7//1 152//1 137//1
f 81//1 194//1 193//1
f 81//1 195//1 194//1
f 40//1 96//1 196//1
f 80//1 197//1 192//1
f 80//1 198//1 197//1
f 63//1 119//1 199//1
f 79//1 200//1 191//1
f 79//1 201//1 200//1
f 62//1 118//1 202//1
f 78//1 203//1 190//1
f 78//1 204//1 203//1
f 46//1 102//1 205//1
f 77//1 206//1 189//1
f 77//1 207//1 206//1
f 59//1 115//1 208//1
f 76//1 209//1 188//1
f 76//1 210//1 209//1
f 58//1 114//1 211//1
f 75//1 212//1 187//1
f 75//1 213//1 212//1
f 47//1 103//1 214//1
f 74//1 215//1 186//1
f 74//1 216//1 215//1
f 55//1 111//1 217//1
f 73//1 218//1 185//1
f 73//1 219//1 218//1
f 54//1 110//1 220//1
f 72//1 221//1 184//1
f 72//1 222//1 221//1
f 44//1 100//1 223//1
f 71//1 224//1 183//1
f 71//1 225//1 224//1
f 51//1 107//1 226//1
f 70//1 227//1 182//1
f 70//1 228//1 227//1
f 50//1 106//1 229//1
f 69//1 230//1 181//1
f 69//1 231//1 230//1
f 32//1 88//1 232//1
f 68//1 233//1 180//1
f 68//1 234//1 233//1
f 35//1 91//1 235//1
f 67//1 236//1 179//1
f 67//1 237//1 236//1
f 34//1 90//1 238//1
f 66//1 239//1 178//1
f 66//1 240//1 239//1
f 28//1 84//1 241//1
f 49//1 242//1 105//1
f 49//1 243//1 242//1
f 81//1 193//1 244//1
f 37//1 245//1 93//1
f 37//1 246//1 245//1
f 80//1 192//1 247//1
f 64//1 248//1 120//1
f 64//1 249//1 248//1
f 79//1 191//1 250//1
f 48//1 251//1 104//1
f 48//1 252//1 251//1
f 78//1 190//1 253//1
f 36//1 254//1 92//1
f 36//1 255//1 254//1
f 77//1 189//1 256//1
f 60//1 257//1 116//1
f 60//1 258//1 257//1
f 76//1 188//1 259//1
f 31//1 260//1 143//1
f 31//1 261//1 260//1
f 75//1 187//1 262//1
f 43//1 263//1 155//1
f 43//1 264//1 263//1
f 74//1 186//1 265//1
f 56//1 266//1 112//1
f 56//1 267//1 266//1
f 73//1 185//1 268//1
f 27//1 269//1 139//1
f 27//1 270//1 269//1
f 72//1 184//1 271//1
f 39//1 272//1 151//1
f 39//1 273//1 272//1
f 71//1 183//1 274//1
f 52//1 275//1 108//1
f 52//1 276//1 275//1
f 70//1 182//1 277//1
f 53//1 278//1 109//1
f 53//1 279//1 278//1
f 69//1 181//1 280//1
f 57//1 281//1 113//1
f 57//1 282//1 281//1
f 68//1 180//1 283//1
f 61//1 284//1 117//1
f 61//1 285//1 284//1
f 67//1 179//1 286//1
f 65//1 287//1 121//1
f 65//1 288//1 287//1
f 66//1 178//1 289//1
f 289//1 118//1 62//1
f 289//1 178//1 118//1
f 178//1 17//1 118//1
f 287//1 289//1 62//1
f 287//1 288//1 289//1
f 288//1 66//1 289//1
f 121//1 174//1 25//1
f 121//1 287//1 174//1
f 287//1 62//1 174//1
f 286//1 114//1 58//1
f 286//1 179//1 114//1
f 179//1 13//1 114//1
f 284//1 286//1 58//1
f 284//1 285//1 286//1
f 285//1 67//1 286//1
f 117//1 170//1 24//1
f 117//1 284//1 170//1
f 284//1 58//1 170//1
f 283//1 110//1 54//1
f 283//1 180//1 110//1
f 180//1 20//1 110//1
f 281//1 283//1 54//1
f 281//1 282//1 283//1
f 282//1 68//1 283//1
f 113//1 166//1 23//1
f 113//1 281//1 166//1
f 281//1 54//1 166//1
f 280//1 106//1 50//1
f 280//1 181//1 106//1
f 181//1 21//1 106//1
f 278//1 280//1 50//1
f 278//1 279//1 280//1
f 279//1 69//1 280//1
f 109//1 162//1 22//1
f 109//1 278//1 162//1
f 278//1 50//1 162//1
f 277//1 91//1 35//1
f 277//1 182//1 91//1
f 182//1 9//1 91//1
f 275//1 277//1 35//1
f 275//1 276//1 277//1
f 276//1 70//1 277//1
f 108//1 147//1 19//1
f 108//1 275//1 147//1
f 275//1 35//1 147//1
f 274//1 103//1 47//1
f 274//1 183//1 103//1
f 183//1 19//1 103//1
f 272//1 274//1 47//1
f 272//1 273//1 274//1
f 273//1 71//1 274//1
f 151//1 159//1 6//1
f 151//1 272//1 159//1
f 272//1 47//1 159//1
f 271//1 107//1 51//1
f 271//1 184//1 107//1
f 184//1 22//1 107//1
f 269//1 271//1 51//1
f 269//1 270//1 271//1
f 270//1 72//1 271//1
f 139//1 163//1 11//1
f 139//1 269//1 163//1
f 269//1 51//1 163//1
f 268//1 150//1 38//1
f 268//1 185//1 150//1
f 185//1 5//1 150//1
f 266//1 268//1 38//1
f 266//1 267//1 268//1
f 267//1 73//1 268//1
f 112//1 94//1 10//1
f 112//1 266//1 94//1
f 266//1 38//1 94//1
f 265//1 138//1 26//1
f 265//1 186//1 138//1
f 186//1 10//1 138//1
f 263//1 265//1 26//1
f 263//1 264//1 265//1
f 264//1 74//1 265//1
f 155//1 82//1 1//1
f 155//1 263//1 82//1
f 263//1 26//1 82//1
f 262//1 111//1 55//1
f 262//1 187//1 111//1
f 187//1 23//1 111//1
f 260//1 262//1 55//1
f 260//1 261//1 262//1
f 261//1 75//1 262//1
f 143//1 167//1 15//1
f 143//1 260//1 167//1
f 260//1 55//1 167//1
f 259//1 154//1 42//1
f 259//1 188//1 154//1
f 188//1 3//1 154//1
f 257//1 259//1 42//1
f 257//1 258//1 259//1
f 258//1 76//1 259//1
f 116//1 98//1 14//1
f 116//1 257//1 98//1
f 257//1 42//1 98//1
f 256//1 142//1 30//1
f 256//1 189//1 142//1
f 189//1 14//1 142//1
f 254//1 256//1 30//1
f 254//1 255//1 256//1
f 255//1 77//1 256//1
f 92//1 86//1 5//1
f 92//1 254//1 86//1
f 254//1 30//1 86//1
f 253//1 115//1 59//1
f 253//1 190//1 115//1
f 190//1 24//1 115//1
f 251//1 253//1 59//1
f 251//1 252//1 253//1
f 252//1 78//1 253//1
f 104//1 171//1 20//1
f 104//1 251//1 171//1
f 251//1 59//1 171//1
f 250//1 90//1 34//1
f 250//1 191//1 90//1
f 191//1 8//1 90//1
f 248//1 250//1 34//1
f 248//1 249//1 250//1
f 249//1 79//1 250//1
f 120//1 146//1 18//1
f 120//1 248//1 146//1
f 248//1 34//1 146//1
f 247//1 102//1 46//1
f 247//1 192//1 102//1
f 192//1 18//1 102//1
f 245//1 247//1 46//1
f 245//1 246//1 247//1
f 246//1 80//1 247//1
f 93//1 158//1 9//1
f 93//1 245//1 158//1
f 245//1 46//1 158//1
f 244//1 119//1 63//1
f 244//1 193//1 119//1
f 193//1 25//1 119//1
f 242//1 244//1 63//1
f 242//1 243//1 244//1
f 243//1 81//1 244//1
f 105//1 175//1 21//1
f 105//1 242//1 175//1
f 242//1 63//1 175//1
f 241//1 157//1 45//1
f 241//1 84//1 157//1
f 84//1 4//1 157//1
f 239//1 241//1 45//1
f 239//1 240//1 241//1
f 240//1 28//1 241//1
f 178//1 101//1 17//1
f 178//1 239//1 101//1
f 239//1 45//1 101//1
f 238//1 153//1 41//1
f 238//1 90//1 153//1
f 90//1 8//1 153//1
f 236//1 238//1 41//1
f 236//1 237//1 238//1
f 237//1 34//1 238//1
f 179//1 97//1 13//1
f 179//1 236//1 97//1
f 236//1 41//1 97//1
f 235//1 160//1 48//1
f 235//1 91//1 160//1
f 91//1 9//1 160//1
f 233//1 235//1 48//1
f 233//1 234//1 235//1
f 234//1 35//1 235//1
f 180//1 104//1 20//1
f 180//1 233//1 104//1
f 233//1 48//1 104//1
f 232//1 161//1 49//1
f 232//1 88//1 161//1
f 88//1 7//1 161//1
f 230//1 232//1 49//1
f 230//1 231//1 232//1
f 231//1 32//1 232//1
f 181//1 105//1 21//1
f 181//1 230//1 105//1
f 230//1 49//1 105//1
f 229//1 149//1 37//1
f 229//1 106//1 149//1
f 106//1 21//1 149//1
f 227//1 229//1 37//1
f 227//1 228//1 229//1
f 228//1 50//1 229//1
f 182//1 93//1 9//1
f 182//1 227//1 93//1
f 227//1 37//1 93//1
f 226//1 164//1 52//1
f 226//1 107//1 164//1
f 107//1 22//1 164//1
f 224//1 226//1 52//1
f 224//1 225//1 226//1
f 225//1 51//1 226//1
f 183//1 108//1 19//1
f 183//1 224//1 108//1
f 224//1 52//1 108//1
f 223//1 165//1 53//1
f 223//1 100//1 165//1
f 100//1 16//1 165//1
f 221//1 223//1 53//1
f 221//1 222//1 223//1
f 222//1 44//1 223//1
f 184//1 109//1 22//1
f 184//1 221//1 109//1
f 221//1 53//1 109//1
f 220//1 148//1 36//1
f 220//1 110//1 148//1
f 110//1 20//1 148//1
f 218//1 220//1 36//1
f 218//1 219//1 220//1
f 219//1 54//1 220//1
f 185//1 92//1 5//1
f 185//1 218//1 92//1
f 218//1 36//1 92//1
f 217//1 168//1 56//1
f 217//1 111//1 168//1
f 111//1 23//1 168//1
f 215//1 217//1 56//1
f 215//1 216//1 217//1
f 216//1 55//1 217//1
f 186//1 112//1 10//1
f 186//1 215//1 112//1
f 215//1 56//1 112//1
f 214//1 169//1 57//1
f 214//1 103//1 169//1
f 103//1 19//1 169//1
f 212//1 214//1 57//1
f 212//1 213//1 214//1
f 213//1 47//1 214//1
f 187//1 113//1 23//1
f 187//1 212//1 113//1
f 212//1 57//1 113//1
f 211//1 141//1 29//1
f 211//1 114//1 141//1
f 114//1 13//1 141//1
f 209//1 211//1 29//1
f 209//1 210//1 211//1
f 210//1 58//1 211//1
f 188//1 85//1 3//1
f 188//1 209//1 85//1
f 209//1 29//1 85//1
f 208//1 172//1 60//1
f 208//1 115//1 172//1
f 115//1 24//1 172//1
f 206//1 208//1 60//1
f 206//1 207//1 208//1
f 207//1 59//1 208//1
f 189//1 116//1 14//1
f 189//1 206//1 116//1
f 206//1 60//1 116//1
f 205//1 173//1 61//1
f 205//1 102//1 173//1
f 102//1 18//1 173//1
f 203//1 205//1 61//1
f 203//1 204//1 205//1
f 204//1 46//1 205//1
f 190//1 117//1 24//1
f 190//1 203//1 117//1
f 203//1 61//1 117//1
f 202//1 145//1 33//1
f 202//1 118//1 145//1
f 118//1 17//1 145//1
f 200//1 202//1 33//1
f 200//1 201//1 202//1
f 201//1 62//1 202//1
f 191//1 89//1 8//1
f 191//1 200//1 89//1
f 200//1 33//1 89//1
f 199//1 176//1 64//1
f 199//1 119//1 176//1
f 119//1 25//1 176//1
f 197//1 199//1 64//1
f 197//1 198//1 199//1
f 198//1 63//1 199//1
f 192//1 120//1 18//1
f 192//1 197//1 120//1
f 197//1 64//1 120//1
f 196//1 177//1 65//1
f 196//1 96//1 177//1
f 96//1 12//1 177//1
f 194//1 196//1 65//1
f 194//1 195//1 196//1
f 195//1 40//1 196//1
f 193//1 121//1 25//1
f 193//1 194//1 121//1
f 194//1 65//1 121//1
f 137//1 195//1 81//1
f 137//1 152//1 195//1
f 152//1 40//1 195//1
f 136//1 198//1 80//1
f 136//1 175//1 198//1
f 175//1 63//1 198//1
f 135//1 201//1 79//1
f 135//1 174//1 201//1
f 174//1 62//1 201//1
f 134//1 204//1 78//1
f 134//1 158//1 204//1
f 158//1 46//1 204//1
f 133//1 207//1 77//1
f 133//1 171//1 207//1
f 171//1 59//1 207//1
f 132//1 210//1 76//1
f 132//1 170//1 210//1
f 170//1 58//1 210//1
f 131//1 213//1 75//1
f 131//1 159//1 213//1
f 159//1 47//1 213//1
f 130//1 216//1 74//1
f 130//1 167//1 216//1
f 167//1 55//1 216//1
f 129//1 219//1 73//1
f 129//1 166//1 219//1
f 166//1 54//1 219//1
f 128//1 222//1 72//1
f 128//1 156//1 222//1
f 156//1 44//1 222//1
f 127//1 225//1 71//1
f 127//1 163//1 225//1
f 163//1 51//1 225//1
f 126//1 228//1 70//1
f 126//1 162//1 228//1
f 162//1 50//1 228//1
f 125//1 231//1 69//1
f 125//1 144//1 231//1
f 144//1 32//1 231//1
f 124//1 234//1 68//1
f 124//1 147//1 234//1
f 147//1 35//1 234//1
f 123//1 237//1 67//1
f 123//1 146//1 237//1
f 146//1 34//1 237//1
f 122//1 240//1 66//1
f 122//1 140//1 240//1
f 140//1 28//1 240//1
f 161//1 243//1 49//1
f 161//1 137//1 243//1
f 137//1 81//1 243//1
f 149//1 246//1 37//1
f 149//1 136//1 246//1
f 136//1 80//1 246//1
f 176//1 249//1 64//1
f 176//1 135//1 249//1
f 135//1 79//1 249//1
f 160//1 252//1 48//1
f 160//1 134//1 252//1
f 134//1 78//1 252//1
f 148//1 255//1 36//1
f 148//1 133//1 255//1
f 133//1 77//1 255//1
f 172//1 258//1 60//1
f 172//1 132//1 258//1
f 132//1 76//1 258//1
f 87//1 261//1 31//1
f 87//1 131//1 261//1
f 131//1 75//1 261//1
f 99//1 264//1 43//1
f 99//1 130//1 264//1
f 130//1 74//1 264//1
f 168//1 267//1 56//1
f 168//1 129//1 267//1
f 129//1 73//1 267//1
f 83//1 270//1 27//1
f 83//1 128//1 270//1
f 128//1 72//1 270//1
f 95//1 273//1 39//1
f 95//1 127//1 273//1
f 127//1 71//1 273//1
f 164//1 276//1 52//1
f 164//1 126//1 276//1
f 126//1 70//1 276//1
f 165//1 279//1 53//1
f 165//1 125//1 279//1
f 125//1 69//1 279//1
f 169//1 282//1 57//1
f 169//1 124//1 282//1
f 124//1 68//1 282//1
f 173//1 285//1 61//1
f 173//1 123//1 285//1
f 123//1 67//1 285//1
f 177//1 288//1 65//1
f 177//1 122//1 288//1
f 122//1 66//1 288//1
